<svg width="85" height="77" viewBox="0 0 85 77" fill="none" xmlns="http://www.w3.org/2000/svg">
<path d="M25.1554 16.9314C25.155 16.9314 25.1552 16.9314 25.1549 16.9314C18.2558 16.9314 11.8225 19.8383 7.04086 25.1163C6.56362 25.643 6.5779 26.4819 7.07289 26.9899C7.56789 27.4983 8.35587 27.4831 8.8331 26.956C13.1415 22.2005 18.9382 19.5816 25.1554 19.5817C37.6528 19.5817 47.8203 30.4045 47.8203 43.7075C47.8203 49.9861 45.5661 55.9323 41.4728 60.4503C37.3905 64.9563 31.9125 67.5712 26.0481 67.8129C25.812 67.8226 25.5835 67.9037 25.3889 68.0465L17.3973 73.9181L17.3973 67.2904C17.3973 66.7513 17.0905 66.2659 16.6214 66.0629C12.4896 64.2739 8.96872 61.25 6.43929 57.3179C3.84994 53.2927 2.48413 48.5753 2.48994 43.6766C2.49509 39.2921 3.61257 35.0026 5.72136 31.2721C6.07593 30.6448 5.8857 29.8306 5.29642 29.4534C4.70747 29.0759 3.94223 29.2784 3.58783 29.9055C1.24631 34.0475 0.00566446 38.8083 2.06402e-05 43.673C-0.00645316 49.11 1.50991 54.3459 4.38477 58.8152C7.03123 62.9291 10.6569 66.1476 14.9073 68.1659L14.9073 74.8244C14.9073 75.6352 15.3263 76.3733 16.0008 76.75C16.3004 76.9171 16.6262 77 16.9509 77C17.3576 77 17.7623 76.8703 18.111 76.6139L26.5097 70.4431C32.8814 70.0832 38.8192 67.1969 43.2651 62.2897C47.8082 57.275 50.3101 50.6757 50.3101 43.7071C50.3101 28.9431 39.0257 16.9314 25.1554 16.9314Z" fill="white"/>
<path d="M37.5686 17.4192C37.7363 17.5007 37.9121 17.5394 38.0852 17.5394C38.5575 17.5394 39.0093 17.2517 39.2184 16.7644C42.8976 8.19075 50.9939 2.65056 59.8448 2.65038C65.6221 2.65021 71.122 4.95834 75.3309 9.14912C75.8332 9.64881 76.6209 9.62125 77.0907 9.08658C77.5604 8.55226 77.534 7.7135 77.0319 7.21346C72.3598 2.56168 66.2558 -0.000176679 59.8446 1.28328e-08C50.0217 0.000176704 41.0363 6.14836 36.9533 15.6631C36.6679 16.3288 36.9433 17.1151 37.5686 17.4192Z" fill="white"/>
<path d="M80.6635 11.7279C80.2769 11.1228 79.5026 10.9655 78.934 11.3769C78.3653 11.7884 78.2178 12.6125 78.6042 13.2178C81.1537 17.2109 82.5044 21.8885 82.5102 26.7454C82.516 31.6443 81.1504 36.3615 78.5609 40.3867C76.0313 44.3188 72.5104 47.3429 68.3788 49.1317C67.9097 49.3348 67.6029 49.8201 67.6029 50.3592L67.6029 56.987L59.6112 51.1151C59.4169 50.9722 59.1881 50.8911 58.9521 50.8815C57.11 50.8057 55.2833 50.4919 53.5229 49.9488C52.8624 49.7452 52.172 50.1497 51.9805 50.8526C51.7891 51.5554 52.1692 52.2905 52.8295 52.4942C54.6676 53.0614 56.5701 53.4035 58.4903 53.5121L66.8891 59.6833C67.2377 59.9393 67.6424 60.0692 68.0489 60.0692C68.3736 60.0692 68.6996 59.9863 68.9991 59.819C69.6735 59.4421 70.0927 58.7042 70.0927 57.8936L70.0927 51.2351C74.3429 49.2167 77.9686 45.9985 80.6152 41.8844C83.4901 37.4153 85.0065 32.1792 85 26.7422C84.9937 21.3529 83.4941 16.1612 80.6635 11.7279Z" fill="white"/>
<path d="M55.8289 37.8648C56.4233 37.8648 57.0177 37.624 57.4702 37.1423L61.2639 33.1042L65.0575 37.1423C65.9627 38.1054 67.4352 38.1054 68.3402 37.1423L71.5421 33.7343C72.4471 32.7709 72.4471 31.2033 71.5421 30.2396L67.7485 26.2015L71.5421 22.1634C72.4473 21.1999 72.4473 19.6325 71.5421 18.6689L68.3404 15.2611C67.902 14.7943 67.319 14.5372 66.6989 14.5372C66.0787 14.5372 65.4958 14.7941 65.0574 15.2609L61.2637 19.299L57.4702 15.2609C57.0318 14.7941 56.4489 14.537 55.8287 14.537C55.2086 14.537 54.6256 14.7941 54.1874 15.2607L50.9857 18.6688C50.5471 19.1356 50.3056 19.756 50.3056 20.4161C50.3056 21.0762 50.5471 21.6966 50.9855 22.1634L54.7791 26.2015L50.9855 30.2396C50.5471 30.7065 50.3056 31.3268 50.3056 31.987C50.3056 32.6471 50.5471 33.2674 50.9855 33.7343L54.1874 37.1423C54.64 37.624 55.2345 37.8648 55.8289 37.8648ZM57.4203 27.1387C57.9065 26.621 57.9065 25.782 57.4203 25.2645L52.8655 20.4164L55.8289 17.2621L60.3836 22.1104C60.8698 22.6277 61.6581 22.6277 62.1441 22.1104L66.6989 17.2621L69.6622 20.4164L65.1075 25.2645C64.6213 25.7822 64.6213 26.6212 65.1075 27.1387L69.6622 31.9868L66.6987 35.1413L62.144 30.293C61.901 30.0343 61.5823 29.905 61.2637 29.905C60.9452 29.905 60.6265 30.0343 60.3834 30.293L55.8287 35.1413L52.8652 31.9868L57.4203 27.1387Z" fill="white"/>
<path d="M33.8752 43.3154C34.3604 43.8342 35.1486 43.8352 35.6358 43.3191L37.5985 41.2375C38.2987 40.4952 38.3113 39.2743 37.6267 38.5159L33.7615 34.232C33.4194 33.8528 32.9593 33.6408 32.4653 33.635C32.4583 33.635 32.4515 33.6348 32.4445 33.6348C31.9585 33.6348 31.502 33.8355 31.1571 34.2013L21.5744 44.3642L19.7903 41.9722C19.2861 41.2965 18.3526 41.1742 17.7098 41.6994L12.7585 45.7442C12.4392 46.0054 12.2358 46.3833 12.1859 46.8088C12.1359 47.2341 12.2456 47.6537 12.4951 47.9907L17.5165 54.7712C17.6175 54.9089 17.7293 55.0437 17.8579 55.1835C18.0921 55.4375 18.4125 55.581 18.747 55.581L23.5593 55.581C23.8887 55.581 24.2047 55.4421 24.4379 55.1946L31.877 47.3051C32.3642 46.7885 32.3655 45.9493 31.8803 45.4309C31.3949 44.9123 30.6066 44.9111 30.1198 45.4274L23.0449 52.9306L19.3238 52.9306L15.0747 47.1929L18.449 44.4363L20.4908 47.1736C20.7112 47.4693 21.0395 47.6507 21.3934 47.6726C21.7472 47.6956 22.0933 47.5548 22.3444 47.2885L32.4346 36.5875L35.3783 39.8503L33.8781 41.4412C33.3914 41.9579 33.3899 42.797 33.8752 43.3154Z" fill="white"/>
</svg>
