<svg width="80" height="80" viewBox="0 0 80 80" fill="none" xmlns="http://www.w3.org/2000/svg">
<path d="M26.5904 50.1063L26.4639 50.1066C25.6005 50.1066 24.9006 50.8065 24.9006 51.67C24.9006 52.5335 25.6005 53.2334 26.4639 53.2334L26.6114 53.2331C27.4748 53.2273 28.17 52.5227 28.1642 51.6592C28.1584 50.7959 27.4538 50.0982 26.5904 50.1063Z" fill="white"/>
<path d="M26.4639 8.20719C16.2921 8.20719 8.01662 16.4831 8.01662 26.6555C8.01662 36.8278 16.2921 45.1037 26.4639 45.1037C36.6358 45.1037 44.9113 36.8278 44.9113 26.6555C44.9113 16.4831 36.6358 8.20719 26.4639 8.20719ZM26.4639 41.9769C22.7833 41.9769 19.4015 40.6716 16.7571 38.5003C16.9123 36.7974 18.1824 35.3813 19.8917 35.0652L22.4257 34.5966L25.1391 38.936C25.4249 39.393 25.9257 39.6705 26.4647 39.6705C27.0037 39.6705 27.5045 39.3929 27.7903 38.9359L30.5024 34.5969L33.0362 35.0653C34.7454 35.3813 36.0156 36.7974 36.1708 38.5003C33.5262 40.6717 30.1446 41.9769 26.4639 41.9769ZM23.4769 23.9882C25.3917 23.9882 27.2163 23.3076 28.6489 22.0876L30.7454 23.3194V24.9072C30.7454 27.2682 28.8247 29.1889 26.4639 29.1889C24.1031 29.1889 22.1825 27.268 22.1825 24.9072V23.988L23.4769 23.9882ZM22.1853 20.8611C22.2679 18.5722 24.1555 16.7359 26.4639 16.7359C28.3049 16.7359 29.8784 17.9039 30.4819 19.5379L29.1907 18.7791C28.5325 18.3924 27.6909 18.5376 27.2006 19.123C26.275 20.2275 24.9178 20.8611 23.4769 20.8611L22.1853 20.8611ZM27.8844 32.886L26.4643 35.1578L25.0427 32.8846C25.1736 32.6801 25.2855 32.4632 25.3756 32.2351C25.731 32.2877 26.0943 32.3157 26.4639 32.3157C26.8331 32.3157 27.1961 32.2877 27.5509 32.2353C27.6412 32.4638 27.7532 32.681 27.8844 32.886ZM38.6642 35.9116C37.7355 33.9157 35.886 32.4121 33.6046 31.9903L30.9581 31.5011C30.7587 31.4643 30.5639 31.3106 30.4773 31.1294C32.5178 29.8084 33.8719 27.5138 33.8719 24.9072V21.0176C33.8719 16.9324 30.5485 13.6091 26.4638 13.6091C22.3789 13.6091 19.0557 16.9326 19.0557 21.0176V24.9072C19.0557 27.5133 20.4094 29.8076 22.4491 31.1286C22.3624 31.3112 22.1684 31.4643 21.9679 31.5011L19.3228 31.9902C17.0416 32.412 15.192 33.9156 14.2633 35.9114C12.3064 33.3382 11.143 30.1302 11.143 26.6555C11.143 18.2071 18.0157 11.334 26.4636 11.334C34.9116 11.334 41.7843 18.2071 41.7843 26.6555C41.7846 30.1305 40.621 33.3384 38.6642 35.9116Z" fill="white"/>
<path d="M77.4961 65.4102L55.7005 43.6132C55.4074 43.3201 55.0097 43.1553 54.5951 43.1553C54.1805 43.1553 53.7829 43.3201 53.4897 43.6132L52.2876 44.8154L48.7344 41.262C51.5449 37.0181 53.1536 31.9495 53.1536 26.5781C53.1536 11.9229 41.2312 -9.32051e-10 26.5768 -6.00781e-10C11.9223 -2.6951e-10 0 11.9229 0 26.5781C0 32.488 1.89871 38.083 5.49064 42.7581C8.96817 47.2839 13.8927 50.6242 19.3576 52.1635C20.1884 52.398 21.052 51.9137 21.2862 51.0825C21.5201 50.2514 21.0362 49.3879 20.2052 49.1538C10.1495 46.3214 3.12664 37.038 3.12664 26.5781C3.12664 13.6471 13.6464 3.12696 26.5766 3.12696C39.5069 3.12696 50.0268 13.6471 50.0268 26.5781C50.0268 31.7102 48.363 36.5293 45.4905 40.4498C45.4547 40.4935 45.4218 40.5386 45.3916 40.585C44.1297 42.282 42.6393 43.8067 40.9588 45.1122C40.8403 45.1798 40.7282 45.2624 40.6271 45.3635C40.6254 45.3652 40.624 45.3671 40.6223 45.3688C38.2385 47.1528 35.4878 48.5018 32.4709 49.2826C31.635 49.499 31.1328 50.352 31.3492 51.188C31.5317 51.8924 32.1662 52.3601 32.8615 52.3601C32.9911 52.3601 33.1229 52.3438 33.2544 52.3098C36.2949 51.5227 39.0967 50.2265 41.5799 48.5277L45.0776 52.0256L43.6112 53.4921C43.0007 54.1027 43.0007 55.0926 43.6112 55.7032L48.5162 60.6084L65.4069 77.5002C67.0734 79.1667 69.2624 80 71.4514 80C73.6404 80 75.8296 79.1667 77.4964 77.5C79.1109 75.8851 80 73.7383 80 71.4552C79.9998 69.1717 79.1106 67.025 77.4961 65.4102ZM44.0708 46.5967C45.0629 45.7283 45.9877 44.7893 46.8377 43.7874L50.0765 47.0265L47.2884 49.8147L44.0708 46.5967ZM75.2853 75.2891C73.1714 77.403 69.7318 77.4032 67.6179 75.2891L51.8327 59.5028L55.6662 55.6691C56.2768 55.0585 56.2769 54.0686 55.6662 53.458C55.0556 52.8475 54.0658 52.8475 53.4553 53.458L49.6216 57.2918L46.9274 54.5974L48.393 53.1317L48.3938 53.1309L53.3927 48.1318L53.3935 48.131L54.5948 46.9296L75.285 67.6214C76.309 68.6455 76.8729 70.007 76.8729 71.4552C76.8731 72.9033 76.3092 74.2649 75.2853 75.2891Z" fill="white"/>
</svg>
