<svg width="148" height="148" viewBox="0 0 148 148" fill="none" xmlns="http://www.w3.org/2000/svg">
<path d="M141.062 62.4375C143.613 62.4375 145.688 60.3632 145.688 57.8125V34.6875C145.688 32.1368 143.613 30.0625 141.062 30.0625H87.0726C80.4634 13.4056 64.2852 2.3125 46.25 2.3125C22.0219 2.3125 2.3125 22.0219 2.3125 46.25C2.3125 66.6994 16.3771 83.8813 35.3257 88.7561C34.9164 89.9516 34.6875 91.2096 34.6875 92.5V138.75C34.6875 142.575 37.8001 145.688 41.625 145.688H50.875C54.6999 145.688 57.8125 142.575 57.8125 138.75V92.5C57.8125 91.2166 57.5882 89.9655 57.1812 88.7746C62.3751 87.4402 67.2868 85.1694 71.6875 82.0383V99.4375C71.6875 101.988 73.7618 104.062 76.3125 104.062H141.062C143.613 104.062 145.688 101.988 145.688 99.4375V76.3125C145.688 73.7618 143.613 71.6875 141.062 71.6875H82.0498C84.0941 68.82 85.7544 65.7189 87.0541 62.4375H141.062ZM57.8125 62.4375H71.5673C66.0889 70.966 56.5244 76.3125 46.25 76.3125C29.674 76.3125 16.1875 62.826 16.1875 46.25C16.1875 29.674 29.674 16.1875 46.25 16.1875C56.5244 16.1875 66.0889 21.534 71.5673 30.0625H57.8125C55.2618 30.0625 53.1875 32.1368 53.1875 34.6875V57.8125C53.1875 60.3632 55.2618 62.4375 57.8125 62.4375ZM57.8125 57.8125V34.6875H85.5625V57.8125H57.8125ZM141.065 57.8125H90.1875V34.6875H141.062L141.065 57.8125ZM50.875 141.062H41.625C40.3508 141.062 39.3125 140.024 39.3125 138.75V104.062H53.1875V138.75C53.1875 140.024 52.1492 141.062 50.875 141.062ZM53.1875 92.5V99.4375H39.3125V92.5C39.3125 91.5149 39.5322 90.5621 39.9253 89.6787C41.9973 89.9794 44.0971 90.1875 46.25 90.1875C48.3844 90.1875 50.4911 89.9886 52.577 89.6857C52.9701 90.5667 53.1875 91.5172 53.1875 92.5ZM76.3125 76.3125H108.688V99.4375H76.3125V76.3125ZM141.062 99.4375H113.312V76.3125H141.062V99.4375ZM76.1668 71.7014C73.7341 71.78 71.78 73.7341 71.7037 76.1691C64.5997 82.2163 55.611 85.5625 46.25 85.5625C24.5726 85.5625 6.9375 67.9274 6.9375 46.25C6.9375 24.5726 24.5726 6.9375 46.25 6.9375C61.7692 6.9375 75.7691 16.1066 82.0776 30.0625H76.9114C70.9382 18.7844 59.0751 11.5625 46.25 11.5625C27.1233 11.5625 11.5625 27.1233 11.5625 46.25C11.5625 65.3767 27.1233 80.9375 46.25 80.9375C59.0751 80.9375 70.9382 73.7156 76.9114 62.4375H82.0637C80.5536 65.7837 78.5695 68.8801 76.1668 71.7014Z" fill="#C9CBCF"/>
<path d="M131.812 43.9375H136.438V48.5625H131.812V43.9375Z" fill="#C9CBCF"/>
<path d="M122.562 43.9375H127.188V48.5625H122.562V43.9375Z" fill="#C9CBCF"/>
<path d="M113.312 43.9375H117.938V48.5625H113.312V43.9375Z" fill="#C9CBCF"/>
<path d="M104.062 43.9375H108.688V48.5625H104.062V43.9375Z" fill="#C9CBCF"/>
<path d="M94.8125 43.9375H99.4375V48.5625H94.8125V43.9375Z" fill="#C9CBCF"/>
<path d="M79.3026 37.6776L67.0625 49.9177L64.0724 46.9276L60.8026 50.1975L67.0625 56.4574L82.5724 40.9475L79.3026 37.6776Z" fill="#C9CBCF"/>
<path d="M131.812 113.312H67.0625C64.5118 113.312 62.4375 115.387 62.4375 117.938V141.062C62.4375 143.613 64.5118 145.688 67.0625 145.688H131.812C134.363 145.688 136.438 143.613 136.438 141.062V117.938C136.438 115.387 134.363 113.312 131.812 113.312ZM67.0625 117.938H94.8125V141.062H67.0625V117.938ZM99.4375 141.062V117.938H131.812L131.815 141.062H99.4375Z" fill="#C9CBCF"/>
<path d="M122.562 127.188H127.188V131.812H122.562V127.188Z" fill="#C9CBCF"/>
<path d="M113.312 127.188H117.938V131.812H113.312V127.188Z" fill="#C9CBCF"/>
<path d="M104.062 127.188H108.688V131.812H104.062V127.188Z" fill="#C9CBCF"/>
<path d="M80.9375 85.5625H85.5625V90.1875H80.9375V85.5625Z" fill="#C9CBCF"/>
<path d="M90.1875 85.5625H94.8125V90.1875H90.1875V85.5625Z" fill="#C9CBCF"/>
<path d="M99.4375 85.5625H104.062V90.1875H99.4375V85.5625Z" fill="#C9CBCF"/>
<path d="M88.5526 120.927L76.3125 133.168L73.3224 130.177L70.0526 133.447L76.3125 139.707L91.8224 124.197L88.5526 120.927Z" fill="#C9CBCF"/>
<path d="M118.615 93.1776L121.885 96.4475L127.188 91.1449L132.49 96.4475L135.76 93.1776L130.457 87.875L135.76 82.5725L132.49 79.3026L127.188 84.6052L121.885 79.3026L118.615 82.5725L123.918 87.875L118.615 93.1776Z" fill="#C9CBCF"/>
</svg>
